<?xml version="1.0" encoding="UTF-8" standalone="no"?>
<svg
   version="1.0"
   width="222.08418pt"
   height="251.11974pt"
   viewBox="0 0 222.08418 251.11973"
   preserveAspectRatio="xMidYMid"
   id="svg8"
   sodipodi:docname="Logo_white.svg"
   inkscape:version="1.3 (0e150ed6c4, 2023-07-21)"
   xmlns:inkscape="http://www.inkscape.org/namespaces/inkscape"
   xmlns:sodipodi="http://sodipodi.sourceforge.net/DTD/sodipodi-0.dtd"
   xmlns="http://www.w3.org/2000/svg"
   xmlns:svg="http://www.w3.org/2000/svg">
  <defs
     id="defs8" />
  <sodipodi:namedview
     id="namedview8"
     pagecolor="#505050"
     bordercolor="#ffffff"
     borderopacity="1"
     inkscape:showpageshadow="0"
     inkscape:pageopacity="0"
     inkscape:pagecheckerboard="1"
     inkscape:deskcolor="#d1d1d1"
     inkscape:document-units="pt"
     inkscape:zoom="1.28"
     inkscape:cx="258.98438"
     inkscape:cy="121.48438"
     inkscape:window-width="2560"
     inkscape:window-height="1377"
     inkscape:window-x="-8"
     inkscape:window-y="535"
     inkscape:window-maximized="1"
     inkscape:current-layer="g8" />
  <g
     transform="matrix(0.1,0,0,-0.1,-326.59712,305.6557)"
     fill="#000000"
     stroke="none"
     id="g8">
    <path
       d="m 4724,3035 c 379,-51 603,-176 706,-397 89,-192 74,-419 -49,-739 -172,-444 -712,-1240 -906,-1334 -55,-27 -147,-26 -200,2 -98,51 -318,314 -510,608 -268,409 -422,735 -481,1010 -25,121 -24,283 3,370 48,153 152,277 293,349 171,88 289,116 625,150 77,8 411,-4 519,-19 z"
       id="path1"
       style="fill:#ffffff;fill-opacity:1;stroke:none;stroke-width:2;stroke-dasharray:none;stroke-opacity:1"
       sodipodi:nodetypes="ccccccccccc" />
    <path
       d="m 4934,2476 c -19,-49 39,-68 183,-59 57,3 103,3 103,-1 0,-3 -13,-30 -29,-59 -32,-57 -85,-209 -124,-354 -20,-74 -22,-93 -11,-93 18,0 39,43 63,131 11,41 40,123 63,183 35,89 53,119 96,165 29,31 50,61 48,68 -4,8 -49,13 -148,17 -79,2 -164,7 -190,11 -39,6 -49,4 -54,-9 z"
       id="path2"
       style="fill:#000000;fill-opacity:1" />
    <path
       d="m 3655,2459 c -22,-10 -49,-19 -60,-19 -36,-1 -66,-34 -82,-91 -29,-105 -33,-124 -33,-164 0,-83 77,-187 174,-238 57,-29 154,-30 193,-1 31,23 77,102 88,152 6,30 5,32 -19,32 -14,0 -26,-5 -26,-10 0,-6 -10,-15 -22,-21 -13,-5 -35,-27 -50,-48 -36,-51 -93,-69 -143,-45 -90,42 -125,186 -75,301 31,71 86,90 178,63 39,-11 45,-11 61,6 16,17 17,22 5,46 -29,57 -113,73 -189,37 z"
       id="path3"
       style="fill:#000000;fill-opacity:1" />
    <path
       d="m 4808,2374 c -7,-14 -25,-32 -41,-40 -37,-20 -35,-58 4,-62 40,-5 103,24 95,44 -3,8 -6,31 -6,50 0,27 -4,34 -20,34 -12,0 -25,-10 -32,-26 z"
       id="path4"
       style="fill:#000000;fill-opacity:1" />
    <path
       d="m 4465,2182 c -41,-26 -58,-49 -51,-68 6,-14 17,-16 75,-10 58,5 70,3 84,-12 16,-17 15,-19 -18,-35 -20,-9 -42,-17 -50,-17 -25,0 -55,-42 -55,-76 0,-61 73,-84 138,-44 35,22 46,25 38,11 -6,-10 16,-21 41,-21 12,0 14,8 9,44 -7,42 -5,45 21,55 28,11 28,11 -4,5 -27,-5 -33,-2 -34,13 -4,81 -26,141 -59,158 -39,20 -99,19 -135,-3 z m 133,-174 c -3,-26 -67,-73 -80,-60 -14,14 11,58 40,69 40,16 44,15 40,-9 z"
       id="path5"
       style="fill:#000000;fill-opacity:1" />
    <path
       d="m 4760,2180 c -8,-14 -8,-32 0,-61 6,-23 13,-67 15,-98 2,-31 9,-88 14,-127 13,-85 2,-130 -40,-179 -41,-46 -64,-52 -100,-26 -33,25 -49,27 -49,6 0,-20 52,-45 95,-45 37,0 86,20 118,49 36,31 47,79 51,224 3,84 11,162 20,190 14,46 13,50 -5,68 -27,27 -104,27 -119,-1 z"
       id="path6"
       style="fill:#000000;fill-opacity:1" />
    <path
       d="m 3994,2175 c -3,-8 -1,-29 4,-47 6,-18 13,-69 17,-113 10,-117 12,-125 45,-125 33,0 40,14 40,76 0,66 47,163 71,148 5,-3 9,-50 9,-105 0,-92 1,-99 20,-99 21,0 25,10 34,93 8,67 22,89 54,85 23,-3 28,-9 34,-48 16,-100 19,-110 33,-110 30,0 7,183 -27,213 -25,21 -71,22 -88,2 -11,-14 -15,-13 -28,6 -12,17 -22,20 -52,16 -21,-3 -47,1 -61,9 -33,18 -98,18 -105,-1 z"
       id="path7"
       style="fill:#000000;fill-opacity:1" />
    <path
       d="m 4330,2180 c 0,-5 9,-10 20,-10 11,0 20,5 20,10 0,6 -9,10 -20,10 -11,0 -20,-4 -20,-10 z"
       id="path8"
       style="fill:#000000;fill-opacity:1" />
  </g>
</svg>
